{
    "asset" : {
        "generator" : "Khronos glTF Blender I/O v1.2.75",
        "version" : "2.0"
    },
    "scene" : 0,
    "scenes" : [
        {
            "name" : "Scene",
            "nodes" : [
                0,
                2,
                4,
                6,
                8
            ]
        }
    ],
    "nodes" : [
        {
            "name" : "Camera",
            "rotation" : [
                0.483536034822464,
                0.33687159419059753,
                -0.20870360732078552,
                0.7804827094078064
            ],
            "translation" : [
                7.358891487121582,
                1.8731529712677002,
                6.925790786743164
            ]
        },
        {
            "mesh" : 0,
            "name" : "Cube.068_wait_metal_0"
        },
        {
            "children" : [
                1
            ],
            "name" : "Cube.068",
            "rotation" : [
                -0.7068610787391663,
                -0.018636537715792656,
                -0.018636533990502357,
                0.7068611979484558
            ],
            "scale" : [
                0.014418501406908035,
                0.00511951046064496,
                0.005165582522749901
            ],
            "translation" : [
                12.286903381347656,
                5.353142738342285,
                -1.5075597763061523
            ]
        },
        {
            "mesh" : 1,
            "name" : "\ufffd\ufffd\ufffd\ufffd\ufffd\ufffd\ufffd\ufffd\ufffd\ufffd.033_Material.004_0"
        },
        {
            "children" : [
                3
            ],
            "name" : "\ufffd\ufffd\ufffd\ufffd\ufffd\ufffd\ufffd\ufffd\ufffd\ufffd.033",
            "rotation" : [
                -0.5000001192092896,
                0.4999999403953552,
                0.5,
                0.5000000596046448
            ],
            "scale" : [
                3.247222661972046,
                3.247222661972046,
                1.4633246660232544
            ],
            "translation" : [
                20.556686401367188,
                6.004448890686035,
                -0.4633665084838867
            ]
        },
        {
            "mesh" : 2,
            "name" : "\ufffd\ufffd\ufffd\ufffd\ufffd\ufffd\ufffd\ufffd\ufffd\ufffd.034_Material.005_0"
        },
        {
            "children" : [
                5
            ],
            "name" : "\ufffd\ufffd\ufffd\ufffd\ufffd\ufffd\ufffd\ufffd\ufffd\ufffd.034",
            "rotation" : [
                -0.5000001192092896,
                0.4999999403953552,
                0.5,
                0.5000000596046448
            ],
            "scale" : [
                3.1068572998046875,
                3.1068572998046875,
                1.4480732679367065
            ],
            "translation" : [
                11.09814453125,
                6.004448890686035,
                -1.2458715438842773
            ]
        },
        {
            "mesh" : 3,
            "name" : "\ufffd\ufffd\ufffd\ufffd\ufffd\ufffd\ufffd\ufffd\ufffd\ufffd.035_Material.007_0"
        },
        {
            "children" : [
                7
            ],
            "name" : "\ufffd\ufffd\ufffd\ufffd\ufffd\ufffd\ufffd\ufffd\ufffd\ufffd.035",
            "rotation" : [
                -0.5000001192092896,
                0.4999999403953552,
                0.5,
                0.5000000596046448
            ],
            "scale" : [
                2.665405035018921,
                2.665405035018921,
                1.4594380855560303
            ],
            "translation" : [
                2.608489990234375,
                5.93062686920166,
                -1.7675390243530273
            ]
        }
    ],
    "materials" : [
        {
            "doubleSided" : true,
            "emissiveFactor" : [
                0,
                0,
                0
            ],
            "name" : "\u6750\u8cea",
            "pbrMetallicRoughness" : {
                "baseColorTexture" : {
                    "index" : 0,
                    "texCoord" : 0
                },
                "metallicFactor" : 0,
                "roughnessFactor" : 0.5
            }
        },
        {
            "doubleSided" : true,
            "emissiveFactor" : [
                0,
                0,
                0
            ],
            "name" : "Material.004",
            "pbrMetallicRoughness" : {
                "baseColorTexture" : {
                    "index" : 1,
                    "texCoord" : 0
                },
                "metallicFactor" : 0,
                "roughnessFactor" : 1
            }
        },
        {
            "doubleSided" : true,
            "emissiveFactor" : [
                0,
                0,
                0
            ],
            "name" : "Material.005",
            "pbrMetallicRoughness" : {
                "baseColorTexture" : {
                    "index" : 2,
                    "texCoord" : 0
                },
                "metallicFactor" : 0,
                "roughnessFactor" : 1
            }
        },
        {
            "doubleSided" : true,
            "emissiveFactor" : [
                0,
                0,
                0
            ],
            "name" : "Material.007",
            "pbrMetallicRoughness" : {
                "baseColorTexture" : {
                    "index" : 3,
                    "texCoord" : 0
                },
                "metallicFactor" : 0,
                "roughnessFactor" : 1
            }
        }
    ],
    "meshes" : [
        {
            "name" : "Cube.068_wait_metal_0",
            "primitives" : [
                {
                    "attributes" : {
                        "POSITION" : 0,
                        "NORMAL" : 1
                    },
                    "indices" : 2,
                    "material" : 0
                }
            ]
        },
        {
            "name" : "\ufffd\ufffd\ufffd\ufffd\ufffd\ufffd\ufffd\ufffd\ufffd\ufffd.033_Material.004_0",
            "primitives" : [
                {
                    "attributes" : {
                        "POSITION" : 3,
                        "NORMAL" : 4,
                        "TEXCOORD_0" : 5
                    },
                    "indices" : 6,
                    "material" : 1
                }
            ]
        },
        {
            "name" : "\ufffd\ufffd\ufffd\ufffd\ufffd\ufffd\ufffd\ufffd\ufffd\ufffd.034_Material.005_0",
            "primitives" : [
                {
                    "attributes" : {
                        "POSITION" : 7,
                        "NORMAL" : 8,
                        "TEXCOORD_0" : 9
                    },
                    "indices" : 6,
                    "material" : 2
                }
            ]
        },
        {
            "name" : "\ufffd\ufffd\ufffd\ufffd\ufffd\ufffd\ufffd\ufffd\ufffd\ufffd.035_Material.007_0",
            "primitives" : [
                {
                    "attributes" : {
                        "POSITION" : 10,
                        "NORMAL" : 11,
                        "TEXCOORD_0" : 12
                    },
                    "indices" : 6,
                    "material" : 3
                }
            ]
        }
    ],
    "textures" : [
        {
            "source" : 0
        },
        {
            "source" : 1
        },
        {
            "source" : 2
        },
        {
            "source" : 3
        }
    ],
    "images" : [
        {
            "bufferView" : 3,
            "mimeType" : "image/jpeg",
            "name" : "\u6728\u6905_\u5de5\u4f5c\u9593_rec room"
        },
        {
            "bufferView" : 8,
            "mimeType" : "image/png",
            "name" : "Material.004_baseColor"
        },
        {
            "bufferView" : 12,
            "mimeType" : "image/png",
            "name" : "Material.005_baseColor"
        },
        {
            "bufferView" : 16,
            "mimeType" : "image/png",
            "name" : "Material.007_baseColor"
        }
    ],
    "accessors" : [
        {
            "bufferView" : 0,
            "componentType" : 5126,
            "count" : 693,
            "max" : [
                1028.8082275390625,
                1071.140869140625,
                581.0200805664062
            ],
            "min" : [
                -1028.8082275390625,
                -1071.140869140625,
                -1000.6546630859375
            ],
            "type" : "VEC3"
        },
        {
            "bufferView" : 1,
            "componentType" : 5126,
            "count" : 693,
            "type" : "VEC3"
        },
        {
            "bufferView" : 2,
            "componentType" : 5123,
            "count" : 756,
            "type" : "SCALAR"
        },
        {
            "bufferView" : 4,
            "componentType" : 5126,
            "count" : 1434,
            "max" : [
                1.1742630004882812,
                1.1742019653320312,
                4.935096740722656
            ],
            "min" : [
                -1.1741561889648438,
                -1.1742172241210938,
                -3.8606414794921875
            ],
            "type" : "VEC3"
        },
        {
            "bufferView" : 5,
            "componentType" : 5126,
            "count" : 1434,
            "type" : "VEC3"
        },
        {
            "bufferView" : 6,
            "componentType" : 5126,
            "count" : 1434,
            "type" : "VEC2"
        },
        {
            "bufferView" : 7,
            "componentType" : 5123,
            "count" : 2688,
            "type" : "SCALAR"
        },
        {
            "bufferView" : 9,
            "componentType" : 5126,
            "count" : 1434,
            "max" : [
                1.1742630004882812,
                1.1742019653320312,
                4.935096740722656
            ],
            "min" : [
                -1.1741561889648438,
                -1.1742172241210938,
                -3.8606414794921875
            ],
            "type" : "VEC3"
        },
        {
            "bufferView" : 10,
            "componentType" : 5126,
            "count" : 1434,
            "type" : "VEC3"
        },
        {
            "bufferView" : 11,
            "componentType" : 5126,
            "count" : 1434,
            "type" : "VEC2"
        },
        {
            "bufferView" : 13,
            "componentType" : 5126,
            "count" : 1434,
            "max" : [
                1.1742630004882812,
                1.1742019653320312,
                4.935096740722656
            ],
            "min" : [
                -1.1741561889648438,
                -1.1742172241210938,
                -3.8606414794921875
            ],
            "type" : "VEC3"
        },
        {
            "bufferView" : 14,
            "componentType" : 5126,
            "count" : 1434,
            "type" : "VEC3"
        },
        {
            "bufferView" : 15,
            "componentType" : 5126,
            "count" : 1434,
            "type" : "VEC2"
        }
    ],
    "bufferViews" : [
        {
            "buffer" : 0,
            "byteLength" : 8316,
            "byteOffset" : 0
        },
        {
            "buffer" : 0,
            "byteLength" : 8316,
            "byteOffset" : 8316
        },
        {
            "buffer" : 0,
            "byteLength" : 1512,
            "byteOffset" : 16632
        },
        {
            "buffer" : 0,
            "byteLength" : 791652,
            "byteOffset" : 18144
        },
        {
            "buffer" : 0,
            "byteLength" : 17208,
            "byteOffset" : 809796
        },
        {
            "buffer" : 0,
            "byteLength" : 17208,
            "byteOffset" : 827004
        },
        {
            "buffer" : 0,
            "byteLength" : 11472,
            "byteOffset" : 844212
        },
        {
            "buffer" : 0,
            "byteLength" : 5376,
            "byteOffset" : 855684
        },
        {
            "buffer" : 0,
            "byteLength" : 183796,
            "byteOffset" : 861060
        },
        {
            "buffer" : 0,
            "byteLength" : 17208,
            "byteOffset" : 1044856
        },
        {
            "buffer" : 0,
            "byteLength" : 17208,
            "byteOffset" : 1062064
        },
        {
            "buffer" : 0,
            "byteLength" : 11472,
            "byteOffset" : 1079272
        },
        {
            "buffer" : 0,
            "byteLength" : 183329,
            "byteOffset" : 1090744
        },
        {
            "buffer" : 0,
            "byteLength" : 17208,
            "byteOffset" : 1274076
        },
        {
            "buffer" : 0,
            "byteLength" : 17208,
            "byteOffset" : 1291284
        },
        {
            "buffer" : 0,
            "byteLength" : 11472,
            "byteOffset" : 1308492
        },
        {
            "buffer" : 0,
            "byteLength" : 188157,
            "byteOffset" : 1319964
        }
    ],
    "buffers" : [
        {
            "byteLength" : 1508124,
            "uri" : "data:application/octet-stream;base64,"
        }
    ]
}
