{
    "asset" : {
        "generator" : "Khronos glTF Blender I/O v1.2.75",
        "version" : "2.0"
    },
    "scene" : 0,
    "scenes" : [
        {
            "name" : "Scene",
            "nodes" : [
                0,
                1,
                2,
                10
            ]
        }
    ],
    "nodes" : [
        {
            "name" : "Light",
            "rotation" : [
                0.16907575726509094,
                0.7558803558349609,
                -0.27217137813568115,
                0.570947527885437
            ],
            "translation" : [
                4.076245307922363,
                5.903861999511719,
                -1.0054539442062378
            ]
        },
        {
            "name" : "Camera",
            "rotation" : [
                0.483536034822464,
                0.33687159419059753,
                -0.20870360732078552,
                0.7804827094078064
            ],
            "translation" : [
                7.358891487121582,
                4.958309173583984,
                6.925790786743164
            ]
        },
        {
            "name" : "Cube.003",
            "rotation" : [
                -0.7071068286895752,
                0,
                0,
                0.7071067094802856
            ],
            "scale" : [
                0.10000000149011612,
                0.10000000149011612,
                0.10000000149011612
            ],
            "translation" : [
                77.91712188720703,
                73.34187316894531,
                92.08916473388672
            ]
        },
        {
            "mesh" : 0,
            "name" : "Cube.110_blek_pleyn_0"
        },
        {
            "mesh" : 1,
            "name" : "Cube.110_plastina_derjatel_0"
        },
        {
            "mesh" : 2,
            "name" : "Cube.111_blek_pleyn_0"
        },
        {
            "mesh" : 3,
            "name" : "Cube.111_plastina_derjatel_0"
        },
        {
            "children" : [
                5,
                6
            ],
            "name" : "Cube.111",
            "rotation" : [
                0,
                1,
                0,
                -3.1391647326017846e-07
            ],
            "scale" : [
                -0.9999998807907104,
                -1,
                -1
            ],
            "translation" : [
                0.00390625,
                -50.453125,
                0
            ]
        },
        {
            "mesh" : 4,
            "name" : "Sphere.068_vint_0"
        },
        {
            "children" : [
                8
            ],
            "name" : "Sphere.068",
            "scale" : [
                0.593377411365509,
                0.5933775901794434,
                2.46136474609375
            ],
            "translation" : [
                955.69921875,
                -54.71875,
                -643.75
            ]
        },
        {
            "children" : [
                3,
                4,
                7,
                9
            ],
            "name" : "Cube.110",
            "rotation" : [
                -0.6384087800979614,
                0.3040299713611603,
                0.3040299713611603,
                0.6384087800979614
            ],
            "scale" : [
                -0.0009293739567510784,
                -0.0009293739567510784,
                -8.475594950141385e-05
            ],
            "translation" : [
                4.584495544433594,
                0.40785741806030273,
                -3.522735595703125
            ]
        }
    ],
    "materials" : [
        {
            "doubleSided" : true,
            "emissiveFactor" : [
                0,
                0,
                0
            ],
            "name" : "blek_pleyn",
            "pbrMetallicRoughness" : {
                "baseColorFactor" : [
                    0,
                    0,
                    0,
                    1
                ],
                "metallicFactor" : 0,
                "roughnessFactor" : 1
            }
        },
        {
            "doubleSided" : true,
            "emissiveFactor" : [
                0,
                0,
                0
            ],
            "name" : "plastina_derjatel",
            "pbrMetallicRoughness" : {
                "baseColorFactor" : [
                    0.32979869842529297,
                    0.444458931684494,
                    0.478831946849823,
                    1
                ],
                "metallicFactor" : 0.0809832289814949,
                "roughnessFactor" : 0.6297637224197388
            }
        },
        {
            "doubleSided" : true,
            "emissiveFactor" : [
                0,
                0,
                0
            ],
            "name" : "vint",
            "pbrMetallicRoughness" : {
                "baseColorFactor" : [
                    0.08288175612688065,
                    0.10668155550956726,
                    0.13457565009593964,
                    1
                ],
                "metallicFactor" : 0.2578125,
                "roughnessFactor" : 0.4529344439506531
            }
        }
    ],
    "meshes" : [
        {
            "name" : "Cube.110_blek_pleyn_0",
            "primitives" : [
                {
                    "attributes" : {
                        "POSITION" : 0,
                        "NORMAL" : 1
                    },
                    "indices" : 2,
                    "material" : 0
                }
            ]
        },
        {
            "name" : "Cube.110_plastina_derjatel_0",
            "primitives" : [
                {
                    "attributes" : {
                        "POSITION" : 3,
                        "NORMAL" : 4
                    },
                    "indices" : 5,
                    "material" : 1
                }
            ]
        },
        {
            "name" : "Cube.111_blek_pleyn_0",
            "primitives" : [
                {
                    "attributes" : {
                        "POSITION" : 6,
                        "NORMAL" : 7
                    },
                    "indices" : 8,
                    "material" : 0
                }
            ]
        },
        {
            "name" : "Cube.111_plastina_derjatel_0",
            "primitives" : [
                {
                    "attributes" : {
                        "POSITION" : 9,
                        "NORMAL" : 10
                    },
                    "indices" : 11,
                    "material" : 1
                }
            ]
        },
        {
            "name" : "Sphere.068_vint_0",
            "primitives" : [
                {
                    "attributes" : {
                        "POSITION" : 12,
                        "NORMAL" : 13
                    },
                    "indices" : 14,
                    "material" : 2
                }
            ]
        }
    ],
    "accessors" : [
        {
            "bufferView" : 0,
            "componentType" : 5126,
            "count" : 34098,
            "max" : [
                14454.791015625,
                5101.927734375,
                6076.42919921875
            ],
            "min" : [
                6231.35009765625,
                416.92919921875,
                -6075.974609375
            ],
            "type" : "VEC3"
        },
        {
            "bufferView" : 1,
            "componentType" : 5126,
            "count" : 34098,
            "type" : "VEC3"
        },
        {
            "bufferView" : 2,
            "componentType" : 5123,
            "count" : 46080,
            "type" : "SCALAR"
        },
        {
            "bufferView" : 3,
            "componentType" : 5126,
            "count" : 691,
            "max" : [
                9627.244140625,
                2393.914794921875,
                1222.7935791015625
            ],
            "min" : [
                -11837.9736328125,
                -1153.87890625,
                -1896.3505859375
            ],
            "type" : "VEC3"
        },
        {
            "bufferView" : 4,
            "componentType" : 5126,
            "count" : 691,
            "type" : "VEC3"
        },
        {
            "bufferView" : 5,
            "componentType" : 5123,
            "count" : 894,
            "type" : "SCALAR"
        },
        {
            "bufferView" : 6,
            "componentType" : 5126,
            "count" : 34096,
            "max" : [
                14454.7919921875,
                5101.92822265625,
                6076.4287109375
            ],
            "min" : [
                6231.35107421875,
                416.9296875,
                -6075.97412109375
            ],
            "type" : "VEC3"
        },
        {
            "bufferView" : 7,
            "componentType" : 5126,
            "count" : 34096,
            "type" : "VEC3"
        },
        {
            "bufferView" : 8,
            "componentType" : 5123,
            "count" : 46080,
            "type" : "SCALAR"
        },
        {
            "bufferView" : 9,
            "componentType" : 5126,
            "count" : 656,
            "max" : [
                9627.244140625,
                2393.914794921875,
                1222.7935791015625
            ],
            "min" : [
                -11837.9736328125,
                -1153.87890625,
                -1896.3505859375
            ],
            "type" : "VEC3"
        },
        {
            "bufferView" : 10,
            "componentType" : 5126,
            "count" : 656,
            "type" : "VEC3"
        },
        {
            "bufferView" : 11,
            "componentType" : 5123,
            "count" : 858,
            "type" : "SCALAR"
        },
        {
            "bufferView" : 12,
            "componentType" : 5126,
            "count" : 688,
            "max" : [
                1000.0001220703125,
                999.9991455078125,
                999.9999389648438
            ],
            "min" : [
                -999.99951171875,
                -1000.0001831054688,
                -999.9999389648438
            ],
            "type" : "VEC3"
        },
        {
            "bufferView" : 13,
            "componentType" : 5126,
            "count" : 688,
            "type" : "VEC3"
        },
        {
            "bufferView" : 14,
            "componentType" : 5123,
            "count" : 3024,
            "type" : "SCALAR"
        }
    ],
    "bufferViews" : [
        {
            "buffer" : 0,
            "byteLength" : 409176,
            "byteOffset" : 0
        },
        {
            "buffer" : 0,
            "byteLength" : 409176,
            "byteOffset" : 409176
        },
        {
            "buffer" : 0,
            "byteLength" : 92160,
            "byteOffset" : 818352
        },
        {
            "buffer" : 0,
            "byteLength" : 8292,
            "byteOffset" : 910512
        },
        {
            "buffer" : 0,
            "byteLength" : 8292,
            "byteOffset" : 918804
        },
        {
            "buffer" : 0,
            "byteLength" : 1788,
            "byteOffset" : 927096
        },
        {
            "buffer" : 0,
            "byteLength" : 409152,
            "byteOffset" : 928884
        },
        {
            "buffer" : 0,
            "byteLength" : 409152,
            "byteOffset" : 1338036
        },
        {
            "buffer" : 0,
            "byteLength" : 92160,
            "byteOffset" : 1747188
        },
        {
            "buffer" : 0,
            "byteLength" : 7872,
            "byteOffset" : 1839348
        },
        {
            "buffer" : 0,
            "byteLength" : 7872,
            "byteOffset" : 1847220
        },
        {
            "buffer" : 0,
            "byteLength" : 1716,
            "byteOffset" : 1855092
        },
        {
            "buffer" : 0,
            "byteLength" : 8256,
            "byteOffset" : 1856808
        },
        {
            "buffer" : 0,
            "byteLength" : 8256,
            "byteOffset" : 1865064
        },
        {
            "buffer" : 0,
            "byteLength" : 6048,
            "byteOffset" : 1873320
        }
    ],
    "buffers" : [
        {
            "byteLength" : 1879368,
            "uri" : "data:application/octet-stream;base64,"
        }
    ]
}
