{
  "asset": {
    "version": "2.0",
    "generator": "Sketchup glTF Exporter by Evan Prananta."
  },
  "scene": 0,
  "scenes": [
    {
      "nodes": [
        0
      ]
    }
  ],
  "samplers": [
    {
    }
  ],
  "nodes": [
    {
      "name": "root",
      "mesh": 0
    }
  ],
  "materials": [
    {
      "pbrMetallicRoughness": {
        "baseColorFactor": [
          0.5605,
          0.5605,
          0.5605,
          0.32
        ],
        "metallicFactor": 0.1,
        "roughnessFactor": 0.9
      },
      "name": "Translucent_Glass_Blue",
      "doubleSided": true,
      "alphaMode": "BLEND"
    },
    {
      "pbrMetallicRoughness": {
        "baseColorTexture": {
          "index": 0
        },
        "metallicFactor": 0.1,
        "roughnessFactor": 0.9
      },
      "name": "Material4",
      "doubleSided": true,
      "alphaMode": "OPAQUE"
    },
    {
      "pbrMetallicRoughness": {
        "baseColorFactor": [
          0.8751,
          1.0,
          0.8751,
          1.0
        ],
        "metallicFactor": 0.1,
        "roughnessFactor": 0.9
      },
      "name": "0066_Honeydew",
      "doubleSided": true
    },
    {
      "pbrMetallicRoughness": {
        "baseColorTexture": {
          "index": 1
        },
        "metallicFactor": 0.1,
        "roughnessFactor": 0.9
      },
      "name": "Material6",
      "doubleSided": true,
      "alphaMode": "OPAQUE"
    },
    {
      "pbrMetallicRoughness": {
        "baseColorFactor": [
          0.2632,
          0.0,
          0.0,
          1.0
        ],
        "metallicFactor": 0.1,
        "roughnessFactor": 0.9
      },
      "name": "0021_DarkRed",
      "doubleSided": true
    },
    {
      "pbrMetallicRoughness": {
        "baseColorTexture": {
          "index": 2
        },
        "metallicFactor": 0.1,
        "roughnessFactor": 0.9
      },
      "name": "Material1",
      "doubleSided": true,
      "alphaMode": "OPAQUE"
    },
    {
      "pbrMetallicRoughness": {
        "baseColorFactor": [
          1.0,
          0.687,
          0.0,
          1.0
        ],
        "metallicFactor": 0.1,
        "roughnessFactor": 0.9
      },
      "name": "0046_Gold",
      "doubleSided": true
    },
    {
      "pbrMetallicRoughness": {
        "baseColorFactor": [
          0.0,
          0.6253,
          0.6456,
          1.0
        ],
        "metallicFactor": 0.1,
        "roughnessFactor": 0.9
      },
      "name": "0083_DarkTurquoise",
      "doubleSided": true
    },
    {
      "pbrMetallicRoughness": {
        "baseColorTexture": {
          "index": 3
        },
        "metallicFactor": 0.75,
        "roughnessFactor": 0.0
      },
      "name": "[Metal_Corrogated_Shiny]2",
      "doubleSided": true,
      "alphaMode": "OPAQUE"
    }
  ],
  "images": [
    {
      "bufferView": 0,
      "mimeType": "image/png"
    },
    {
      "bufferView": 1,
      "mimeType": "image/png"
    },
    {
      "bufferView": 2,
      "mimeType": "image/png"
    },
    {
      "bufferView": 3,
      "mimeType": "image/png"
    }
  ],
  "textures": [
    {
      "source": 0,
      "sampler": 0
    },
    {
      "source": 1,
      "sampler": 0
    },
    {
      "source": 2,
      "sampler": 0
    },
    {
      "source": 3,
      "sampler": 0
    }
  ],
  "meshes": [
    {
      "primitives": [
        {
          "attributes": {
            "POSITION": 0,
            "NORMAL": 1
          },
          "indices": 5,
          "mode": 4,
          "material": 0
        },
        {
          "attributes": {
            "POSITION": 2,
            "NORMAL": 3,
            "TEXCOORD_0": 4
          },
          "indices": 6,
          "mode": 4,
          "material": 1
        },
        {
          "attributes": {
            "POSITION": 0,
            "NORMAL": 1
          },
          "indices": 7,
          "mode": 4,
          "material": 2
        },
        {
          "attributes": {
            "POSITION": 2,
            "NORMAL": 3,
            "TEXCOORD_0": 4
          },
          "indices": 8,
          "mode": 4,
          "material": 3
        },
        {
          "attributes": {
            "POSITION": 0,
            "NORMAL": 1
          },
          "indices": 9,
          "mode": 4,
          "material": 4
        },
        {
          "attributes": {
            "POSITION": 2,
            "NORMAL": 3,
            "TEXCOORD_0": 4
          },
          "indices": 10,
          "mode": 4,
          "material": 5
        },
        {
          "attributes": {
            "POSITION": 0,
            "NORMAL": 1
          },
          "indices": 11,
          "mode": 4,
          "material": 6
        },
        {
          "attributes": {
            "POSITION": 0,
            "NORMAL": 1
          },
          "indices": 12,
          "mode": 4,
          "material": 7
        },
        {
          "attributes": {
            "POSITION": 2,
            "NORMAL": 3,
            "TEXCOORD_0": 4
          },
          "indices": 13,
          "mode": 4,
          "material": 8
        }
      ]
    }
  ],
  "accessors": [
    {
      "bufferView": 4,
      "componentType": 5126,
      "count": 13650,
      "type": "VEC3",
      "min": [
        0.12345484555958161,
        1.1483862266754319,
        -0.9399915059144835
      ],
      "max": [
        0.3657798983013804,
        1.2717217361824154,
        -0.5944426212762075
      ]
    },
    {
      "bufferView": 5,
      "componentType": 5126,
      "count": 13650,
      "type": "VEC3"
    },
    {
      "bufferView": 6,
      "componentType": 5126,
      "count": 6368,
      "type": "VEC3",
      "min": [
        0.10549647297309571,
        1.1483862266754319,
        -1.0117738212763794
      ],
      "max": [
        0.42469615377337533,
        1.2496216466754342,
        -0.5748802212761573
      ]
    },
    {
      "bufferView": 7,
      "componentType": 5126,
      "count": 6368,
      "type": "VEC3"
    },
    {
      "bufferView": 8,
      "componentType": 5126,
      "count": 6368,
      "type": "VEC2"
    },
    {
      "bufferView": 9,
      "componentType": 5123,
      "count": 3852,
      "type": "SCALAR"
    },
    {
      "bufferView": 10,
      "componentType": 5123,
      "count": 3528,
      "type": "SCALAR"
    },
    {
      "bufferView": 9,
      "componentType": 5123,
      "count": 42804,
      "type": "SCALAR",
      "byteOffset": 7704
    },
    {
      "bufferView": 10,
      "componentType": 5123,
      "count": 3528,
      "type": "SCALAR",
      "byteOffset": 7056
    },
    {
      "bufferView": 9,
      "componentType": 5123,
      "count": 7560,
      "type": "SCALAR",
      "byteOffset": 93312
    },
    {
      "bufferView": 10,
      "componentType": 5123,
      "count": 1764,
      "type": "SCALAR",
      "byteOffset": 14112
    },
    {
      "bufferView": 9,
      "componentType": 5123,
      "count": 7560,
      "type": "SCALAR",
      "byteOffset": 108432
    },
    {
      "bufferView": 9,
      "componentType": 5123,
      "count": 7560,
      "type": "SCALAR",
      "byteOffset": 123552
    },
    {
      "bufferView": 10,
      "componentType": 5123,
      "count": 1350,
      "type": "SCALAR",
      "byteOffset": 17640
    }
  ],
  "bufferViews": [
    {
      "buffer": 0,
      "byteLength": 818
    },
    {
      "buffer": 0,
      "byteOffset": 818,
      "byteLength": 844
    },
    {
      "buffer": 0,
      "byteOffset": 1662,
      "byteLength": 628
    },
    {
      "buffer": 0,
      "byteOffset": 2290,
      "byteLength": 1554
    },
    {
      "buffer": 0,
      "byteOffset": 3852,
      "byteLength": 163800,
      "target": 34962,
      "byteStride": 12
    },
    {
      "buffer": 0,
      "byteOffset": 167652,
      "byteLength": 163800,
      "target": 34962,
      "byteStride": 12
    },
    {
      "buffer": 0,
      "byteOffset": 331452,
      "byteLength": 76416,
      "target": 34962,
      "byteStride": 12
    },
    {
      "buffer": 0,
      "byteOffset": 407868,
      "byteLength": 76416,
      "target": 34962,
      "byteStride": 12
    },
    {
      "buffer": 0,
      "byteOffset": 484288,
      "byteLength": 50944,
      "target": 34962,
      "byteStride": 8
    },
    {
      "buffer": 0,
      "byteOffset": 535232,
      "byteLength": 138672,
      "target": 34963
    },
    {
      "buffer": 0,
      "byteOffset": 673904,
      "byteLength": 20340,
      "target": 34963
    }
  ],
  "buffers": [
    {
      "uri": "data:application/octet-stream;base64,",
      "byteLength": 694244
    }
  ]
}