{
  "accessors": [
    {
      "bufferView": 2,
      "componentType": 5126,
      "count": 1254,
      "max": [
        470.7791748046875,
        675.2421264648438,
        470.77935791015625
      ],
      "min": [
        -470.77935791015625,
        -2.448211431503296,
        -470.77935791015625
      ],
      "type": "VEC3"
    },
    {
      "bufferView": 2,
      "byteOffset": 15048,
      "componentType": 5126,
      "count": 1254,
      "max": [
        1.0,
        1.0,
        1.0
      ],
      "min": [
        -1.0,
        -1.0,
        -1.0
      ],
      "type": "VEC3"
    },
    {
      "bufferView": 1,
      "componentType": 5126,
      "count": 1254,
      "max": [
        0.9901893138885498,
        0.9089168310165405
      ],
      "min": [
        0.03430265188217163,
        0.018456343561410904
      ],
      "type": "VEC2"
    },
    {
      "bufferView": 1,
      "byteOffset": 10032,
      "componentType": 5126,
      "count": 1254,
      "max": [
        0.9901893138885498,
        0.9089168310165405
      ],
      "min": [
        0.03430265188217163,
        0.018456343561410904
      ],
      "type": "VEC2"
    },
    {
      "bufferView": 0,
      "componentType": 5125,
      "count": 1986,
      "type": "SCALAR"
    }
  ],
  "asset": {
    "extras": {
      "author": "Shellsist (https://sketchfab.com/Shellsist)",
      "license": "CC-BY-4.0 (http://creativecommons.org/licenses/by/4.0/)",
      "source": "https://sketchfab.com/3d-models/lowpoly-mahjong-table-36a23dc91b6045f79ecd049b6fa27d34",
      "title": "Lowpoly Mahjong table"
    },
    "generator": "Sketchfab-11.19.0",
    "version": "2.0"
  },
  "bufferViews": [
    {
      "buffer": 0,
      "byteLength": 7944,
      "name": "floatBufferViews",
      "target": 34963
    },
    {
      "buffer": 0,
      "byteLength": 20064,
      "byteOffset": 7944,
      "byteStride": 8,
      "name": "floatBufferViews",
      "target": 34962
    },
    {
      "buffer": 0,
      "byteLength": 30096,
      "byteOffset": 28008,
      "byteStride": 12,
      "name": "floatBufferViews",
      "target": 34962
    }
  ],
  "buffers": [
    {
      "byteLength": 58104,
      "uri": "scene.bin"
    }
  ],
  "images": [
    {
      "uri": "textures/TABLE_baseColor.png"
    },
    {
      "uri": "textures/TABLE_metallicRoughness.png"
    }
  ],
  "materials": [
    {
      "doubleSided": true,
      "name": "TABLE",
      "pbrMetallicRoughness": {
        "baseColorFactor": [
          0.15979455094881104,
          0.15979455094881104,
          0.15979455094881104,
          1.0
        ],
        "baseColorTexture": {
          "index": 0
        },
        "metallicFactor": 0.4151618238087421,
        "metallicRoughnessTexture": {
          "index": 1
        }
      }
    }
  ],
  "meshes": [
    {
      "name": "Cube.032_TABLE_0",
      "primitives": [
        {
          "attributes": {
            "NORMAL": 1,
            "POSITION": 0,
            "TEXCOORD_0": 2,
            "TEXCOORD_1": 3
          },
          "indices": 4,
          "material": 0,
          "mode": 4
        }
      ]
    }
  ],
  "nodes": [
    {
      "children": [
        1
      ],
      "matrix": [
        1.0,
        0.0,
        0.0,
        0.0,
        0.0,
        2.220446049250313e-16,
        -1.0,
        0.0,
        0.0,
        1.0,
        2.220446049250313e-16,
        0.0,
        0.0,
        0.0,
        0.0,
        1.0
      ],
      "name": "Sketchfab_model"
    },
    {
      "children": [
        2
      ],
      "matrix": [
        1.0,
        0.0,
        0.0,
        0.0,
        0.0,
        0.0,
        1.0,
        0.0,
        0.0,
        -1.0,
        0.0,
        0.0,
        0.0,
        0.0,
        0.0,
        1.0
      ],
      "name": "9e411f4efd5749079e832c2ce5d6b53b.fbx"
    },
    {
      "children": [
        3,
        6,
        9,
        11,
        13
      ],
      "name": "RootNode"
    },
    {
      "children": [
        4
      ],
      "matrix": [
        100.0,
        0.0,
        0.0,
        0.0,
        0.0,
        99.99999999999972,
        -7.5497901264043296e-06,
        0.0,
        0.0,
        7.5497901264043296e-06,
        99.99999999999972,
        0.0,
        -70.1037368774414,
        482.1702880859375,
        -411.7567138671875,
        1.0
      ],
      "name": "Point"
    },
    {
      "children": [
        5
      ],
      "matrix": [
        1.0,
        0.0,
        0.0,
        0.0,
        0.0,
        2.220446049250313e-16,
        1.0,
        0.0,
        0.0,
        -1.0,
        2.220446049250313e-16,
        0.0,
        0.0,
        0.0,
        0.0,
        1.0
      ],
      "name": "Object_4"
    },
    {
      "name": "Object_5"
    },
    {
      "children": [
        7
      ],
      "matrix": [
        100.0,
        0.0,
        0.0,
        0.0,
        0.0,
        99.99999999999972,
        -7.5497901264043296e-06,
        0.0,
        0.0,
        7.5497901264043296e-06,
        99.99999999999972,
        0.0,
        -70.1037368774414,
        482.1702880859375,
        -411.7567138671875,
        1.0
      ],
      "name": "Point.001"
    },
    {
      "children": [
        8
      ],
      "matrix": [
        1.0,
        0.0,
        0.0,
        0.0,
        0.0,
        2.220446049250313e-16,
        1.0,
        0.0,
        0.0,
        -1.0,
        2.220446049250313e-16,
        0.0,
        0.0,
        0.0,
        0.0,
        1.0
      ],
      "name": "Object_7"
    },
    {
      "name": "Object_8"
    },
    {
      "children": [
        10
      ],
      "matrix": [
        0.06965097039937973,
        0.0,
        0.0,
        0.0,
        0.0,
        0.0696509703993788,
        1.134758281460797e-08,
        0.0,
        0.0,
        -1.134758281460797e-08,
        0.0696509703993788,
        0.0,
        0.0,
        0.0,
        0.0,
        1.0
      ],
      "name": "Cube.032"
    },
    {
      "mesh": 0,
      "name": "Cube.032_TABLE_0"
    },
    {
      "children": [
        12
      ],
      "matrix": [
        4.3312576825105253e-05,
        1.5777218104420236e-28,
        -99.99999999999062,
        0.0,
        2.7466368074247617e-12,
        100.0,
        1.1896391771742855e-18,
        0.0,
        99.99999999999062,
        -2.7466368074250202e-12,
        4.3312576825105253e-05,
        0.0,
        0.0,
        0.0,
        1200.0,
        1.0
      ],
      "name": "Camera.001"
    },
    {
      "name": "Object_12"
    },
    {
      "children": [
        14
      ],
      "matrix": [
        1.9470718870540082e-05,
        0.0,
        -99.99999999999811,
        0.0,
        6.196742270247733e-13,
        100.0,
        1.206550266867408e-19,
        0.0,
        99.99999999999811,
        -6.19674227024785e-13,
        1.9470718870540082e-05,
        0.0,
        0.0,
        0.0,
        1200.0,
        1.0
      ],
      "name": "Camera"
    },
    {
      "name": "Object_14"
    }
  ],
  "samplers": [
    {
      "magFilter": 9729,
      "minFilter": 9987,
      "wrapS": 10497,
      "wrapT": 10497
    }
  ],
  "scene": 0,
  "scenes": [
    {
      "name": "Sketchfab_Scene",
      "nodes": [
        0
      ]
    }
  ],
  "textures": [
    {
      "sampler": 0,
      "source": 0
    },
    {
      "sampler": 0,
      "source": 1
    }
  ]
}
